<?xml version="1.0" encoding="iso-8859-1"?>
<!-- Generator: Adobe Illustrator 19.0.0, SVG Export Plug-In . SVG Version: 6.00 Build 0)  -->
<svg xmlns="http://www.w3.org/2000/svg" xmlns:xlink="http://www.w3.org/1999/xlink" version="1.1" id="Capa_1" x="0px" y="0px" viewBox="0 0 480 480" style="enable-background:new 0 0 480 480;" xml:space="preserve" width="512px" height="512px">
<g>
	<g>
		<g>
			<path d="M372.568,336H304v-40c0-4.418-3.582-8-8-8H184c-4.418,0-8,3.582-8,8v40h-68.568C49.08,335.135,1.03,381.65,0,440v16     c0,4.418,3.582,8,8,8h464c4.418,0,8-3.582,8-8v-16C478.97,381.65,430.92,335.135,372.568,336z M192,304h96v32h-96V304z      M216,399.416L209.056,448H104v-40H88v40H16v-8c1.024-49.515,41.914-88.87,91.432-88H200v32c0,4.418,3.582,8,8,8     c1.731,0,3.415-0.561,4.8-1.6l3.2-2.4V399.416z M225.224,448l5.712-40h18.128l5.712,40H225.224z M232,392v-16h16v16H232z      M260.504,365.384L244.8,353.6c-1.422-1.067-3.111-1.6-4.8-1.6c-1.689,0-3.378,0.533-4.8,1.6l-15.68,11.76l-0.32,0.24L216,368     v-16h24h24v16l-3.2-2.4L260.504,365.384z M464,448h-72v-40h-16v40H270.944L264,399.416V388l3.2,2.4     c3.535,2.651,8.549,1.935,11.2-1.6c1.039-1.385,1.6-3.069,1.6-4.8v-32h92.568c49.518-0.87,90.408,38.485,91.432,88V448z" fill="#4b7b67"/>
			<path d="M376,64.696c41.666,63.105,27.452,147.685-32.552,193.704l9.72,12.72c66.62-51.109,82.444-144.999,36.256-215.12H400V40     h-32c-4.418,0-8,3.582-8,8v32h16V64.696z" fill="#4b7b67"/>
			<path d="M80,232v16h32c4.418,0,8-3.582,8-8v-32h-16v15.304C62.334,160.199,76.548,75.62,136.552,29.6l-9.72-12.72     C60.212,67.989,44.388,161.879,90.576,232H80z" fill="#4b7b67"/>
			<path d="M132.474,81.714c0.007,0.007,0.015,0.015,0.022,0.022l14.872,14.872c-2.536,4.948-4.661,10.096-6.352,15.392H120     c-4.418,0-8,3.582-8,8v48c0,4.418,3.582,8,8,8h21.016c1.691,5.296,3.816,10.444,6.352,15.392l-14.872,14.872     c-3.123,3.124-3.123,8.188,0,11.312l33.904,33.928c3.124,3.123,8.188,3.123,11.312,0l14.872-14.872     c4.955,2.538,10.111,4.662,15.416,6.352V264c0,4.418,3.582,8,8,8h48c4.418,0,8-3.582,8-8v-21.016     c5.296-1.691,10.444-3.816,15.392-6.352l14.872,14.872c3.124,3.123,8.188,3.123,11.312,0l33.928-33.904     c3.123-3.124,3.123-8.188,0-11.312l-14.872-14.872c2.538-4.955,4.662-10.111,6.352-15.416H360c4.418,0,8-3.582,8-8v-48     c0-4.418-3.582-8-8-8h-21.016c-1.691-5.296-3.816-10.444-6.352-15.392l14.872-14.872c3.123-3.124,3.123-8.188,0-11.312     L313.6,36.496c-3.124-3.123-8.188-3.123-11.312,0l-14.872,14.872c-4.955-2.538-10.111-4.662-15.416-6.352V24c0-4.418-3.582-8-8-8     h-48c-4.418,0-8,3.582-8,8v21.016c-5.296,1.691-10.444,3.816-15.392,6.352l-14.872-14.872c-3.124-3.123-8.188-3.123-11.312,0     L132.496,70.4C129.366,73.518,129.356,78.583,132.474,81.714z M172.08,53.472l13.464,13.464c2.586,2.588,6.598,3.092,9.744,1.224     c7.075-4.193,14.716-7.348,22.688-9.368C221.52,57.889,224,54.697,224,51.04V32h32v19.04c0,3.657,2.48,6.849,6.024,7.752     c7.972,2.02,15.613,5.175,22.688,9.368c3.146,1.868,7.158,1.364,9.744-1.224l13.464-13.464l22.608,22.608l-13.464,13.464     c-2.588,2.586-3.092,6.598-1.224,9.744c4.193,7.075,7.348,14.716,9.368,22.688c0.903,3.544,4.095,6.024,7.752,6.024H352v32     h-19.04c-3.657,0-6.849,2.48-7.752,6.024c-2.02,7.972-5.175,15.613-9.368,22.688c-1.868,3.146-1.364,7.158,1.224,9.744     l13.464,13.464l-22.608,22.608l-13.464-13.464c-2.586-2.588-6.598-3.092-9.744-1.224c-7.075,4.193-14.716,7.348-22.688,9.368     c-3.544,0.903-6.024,4.095-6.024,7.752V256h-32v-19.04c0-3.657-2.48-6.849-6.024-7.752c-7.972-2.02-15.613-5.175-22.688-9.368     c-3.146-1.868-7.158-1.364-9.744,1.224l-13.464,13.464l-22.608-22.608l13.464-13.464c2.588-2.586,3.092-6.598,1.224-9.744     c-4.193-7.075-7.348-14.716-9.368-22.688c-0.903-3.544-4.095-6.024-7.752-6.024H128v-32h19.04c3.657,0,6.849-2.48,7.752-6.024     c2.02-7.972,5.175-15.613,9.368-22.688c1.868-3.146,1.364-7.158-1.224-9.744L149.472,76.08L172.08,53.472z" fill="#4b7b67"/>
			<path d="M240,224c44.183,0,80-35.817,80-80s-35.817-80-80-80s-80,35.817-80,80C160.049,188.163,195.837,223.951,240,224z M240,80     c35.346,0,64,28.654,64,64c0,35.346-28.654,64-64,64c-35.346,0-64-28.654-64-64C176.04,108.67,204.67,80.04,240,80z" fill="#4b7b67"/>
			<path d="M240,168c-4.418,0-8-3.582-8-8h-16c0.042,10.134,6.445,19.15,16,22.528V192h16v-9.472     c12.473-4.393,19.023-18.066,14.629-30.539c-3.38-9.596-12.455-16.009-22.629-15.989c-4.418,0-8-3.582-8-8s3.582-8,8-8     s8,3.582,8,8h16c-0.042-10.134-6.445-19.15-16-22.528V96h-16v9.472c-12.473,4.393-19.023,18.066-14.629,30.539     c3.38,9.596,12.455,16.009,22.629,15.989c4.418,0,8,3.582,8,8S244.418,168,240,168z" fill="#4b7b67"/>
		</g>
	</g>
</g>
<g>
</g>
<g>
</g>
<g>
</g>
<g>
</g>
<g>
</g>
<g>
</g>
<g>
</g>
<g>
</g>
<g>
</g>
<g>
</g>
<g>
</g>
<g>
</g>
<g>
</g>
<g>
</g>
<g>
</g>
</svg>
