<?xml version="1.0" encoding="iso-8859-1"?>
<!-- Generator: Adobe Illustrator 19.0.0, SVG Export Plug-In . SVG Version: 6.00 Build 0)  -->
<svg xmlns="http://www.w3.org/2000/svg" xmlns:xlink="http://www.w3.org/1999/xlink" version="1.1" id="Capa_1" x="0px" y="0px" viewBox="0 0 512 512" style="enable-background:new 0 0 512 512;" xml:space="preserve" width="512px" height="512px">
<g>
	<g>
		<path d="M348.057,164.516H163.942c-4.142,0-7.5,3.357-7.5,7.5c0,4.141,3.358,7.5,7.5,7.5h184.115c4.142,0,7.5-3.358,7.5-7.5    C355.557,167.873,352.199,164.516,348.057,164.516z" fill="#4b7b67"/>
	</g>
</g>
<g>
	<g>
		<path d="M310.552,208.839H201.447c-4.142,0-7.5,3.358-7.5,7.5c0,4.142,3.358,7.5,7.5,7.5h109.105c4.142,0,7.5-3.358,7.5-7.5    C318.052,212.197,314.694,208.839,310.552,208.839z" fill="#4b7b67"/>
	</g>
</g>
<g>
	<g>
		<path d="M190.805,335.946v-20.073c3.566,0.924,7.263,2.508,10.961,4.49c1.453,0.792,3.038,1.188,4.623,1.188    c5.018,0,8.98-3.829,8.98-8.849c0-3.962-2.246-6.47-4.754-7.924c-5.68-3.169-12.018-5.282-19.15-6.339v-1.847    c0-3.831-3.038-6.869-6.867-6.869c-3.83,0-6.868,3.038-6.868,6.869v1.583c-16.64,1.718-27.733,11.489-27.733,26.017    c0,15.715,9.376,22.979,28.393,28.129v20.997c-6.075-1.32-11.357-3.829-16.904-7.395c-1.585-1.058-3.434-1.716-5.151-1.716    c-5.15,0-9.113,3.829-9.113,8.979c0,3.565,1.717,6.207,4.49,7.924c7.792,4.754,16.64,8.055,26.016,9.244v7.131    c0,3.831,3.038,6.867,6.868,6.867c3.829,0,6.867-3.036,6.867-6.867v-7c16.64-1.848,27.997-11.357,27.997-26.148    C219.462,349.549,210.879,341.36,190.805,335.946z M178.392,332.512c-7.263-2.641-9.113-5.414-9.113-9.507    c0-4.226,2.774-7.396,9.113-8.319V332.512z M190.805,373.98v-18.356c7.131,2.51,9.376,5.415,9.376,9.773    C200.182,370.15,197.012,373.055,190.805,373.98z" fill="#4b7b67"/>
	</g>
</g>
<g>
	<g>
		<path d="M372.271,306.323c-0.029-12.796-10.466-23.207-23.266-23.207h-91.302c-12.799,0-23.236,10.41-23.266,23.207    c-0.087,38.464,1.423,69.523,21.274,90.098c8.915,9.241,21.555,14.54,34.681,14.54h25.959c12.79,0,24.686-4.752,33.498-13.383    C370.766,377.091,372.36,345.497,372.271,306.323z M339.353,386.862c-5.904,5.782-14.288,9.099-23.001,9.099h-25.959    c-9.077,0-17.783-3.628-23.886-9.954c-15.942-16.525-17.148-44.628-17.069-79.649c0.01-4.544,3.718-8.241,8.266-8.241h91.302    c4.547,0,8.255,3.697,8.266,8.241C357.352,341.948,356.084,370.475,339.353,386.862z" fill="#4b7b67"/>
	</g>
</g>
<g>
	<g>
		<path d="M271.925,323.704c-4.142,0-7.5,3.358-7.5,7.5v5.688c0,4.142,3.358,7.5,7.5,7.5c4.142,0,7.5-3.358,7.5-7.5v-5.688    C279.425,327.063,276.067,323.704,271.925,323.704z" fill="#4b7b67"/>
	</g>
</g>
<g>
	<g>
		<path d="M334.783,323.704c-4.142,0-7.5,3.358-7.5,7.5v5.688c0,4.142,3.358,7.5,7.5,7.5c4.142,0,7.5-3.358,7.5-7.5v-5.688    C342.283,327.063,338.925,323.704,334.783,323.704z" fill="#4b7b67"/>
	</g>
</g>
<g>
	<g>
		<path d="M317.822,331.233c-3.119-2.727-7.856-2.409-10.583,0.71c-0.918,1.05-2.334,1.653-3.884,1.653s-2.966-0.603-3.885-1.653    c-2.726-3.119-7.464-3.437-10.583-0.71c-3.118,2.726-3.436,7.464-0.71,10.583c3.767,4.31,9.299,6.781,15.178,6.781    c5.879,0,11.41-2.471,15.177-6.78C321.258,338.697,320.94,333.959,317.822,331.233z" fill="#4b7b67"/>
	</g>
</g>
<g>
	<g>
		<path d="M427.019,398.971c4.142,0,7.5-3.358,7.5-7.5c0,0,0-305.531,0-305.684c0-4.054-3.444-7.5-7.5-7.5H312.957l-36.82-42.911    c2.086-3.501,3.288-7.587,3.288-11.95C279.425,10.509,268.917,0,256,0c-12.917,0-23.425,10.509-23.425,23.426    c0,4.363,1.203,8.449,3.289,11.951l-36.82,42.911H84.981c-4.002,0-7.5,3.509-7.5,7.5v70.684c0,4.142,3.358,7.5,7.5,7.5    c4.142,0,7.5-3.358,7.5-7.5v-52.896l24.595,23.98v335.178l-24.595,23.98V186.471c0-4.142-3.358-7.5-7.5-7.5    c-4.142,0-7.5,3.358-7.5,7.5c0,0,0,317.841,0,318.029c0,4.03,3.475,7.5,7.5,7.5c0,0,342.012,0,342.039,0    c4.059,0,7.499-3.44,7.499-7.5v-83.029c0-4.142-3.358-7.5-7.5-7.5c-4.142,0-7.5,3.358-7.5,7.5v65.242l-24.595-23.98V127.555    l24.595-23.98v287.896C419.519,395.613,422.877,398.971,427.019,398.971z M256,15c4.646,0,8.425,3.78,8.425,8.426    s-3.78,8.425-8.425,8.425c-4.645,0-8.425-3.779-8.425-8.425S251.354,15,256,15z M247.244,45.147    c2.707,1.095,5.661,1.704,8.756,1.704c3.095,0,6.049-0.608,8.755-1.704l28.436,33.14h-74.383L247.244,45.147z M408.583,497    H103.417l24.21-23.604h256.745L408.583,497z M132.076,458.396V131.892h247.848v326.504H132.076z M384.373,116.891H127.627    l-24.21-23.604h305.166L384.373,116.891z" fill="#4b7b67"/>
	</g>
</g>
<g>
</g>
<g>
</g>
<g>
</g>
<g>
</g>
<g>
</g>
<g>
</g>
<g>
</g>
<g>
</g>
<g>
</g>
<g>
</g>
<g>
</g>
<g>
</g>
<g>
</g>
<g>
</g>
<g>
</g>
</svg>
